<svg width="10" height="10" viewBox="0 0 10 10" fill="none" xmlns="http://www.w3.org/2000/svg">
<path d="M8.82309 4.51042C8.84451 4.66667 8.85522 4.82812 8.85522 5C8.85522 5.16667 8.84451 5.33333 8.81773 5.48958L9.90469 6.3125C10.0011 6.38542 10.0278 6.52604 9.96894 6.63021L8.94089 8.35938C8.87663 8.47396 8.74277 8.51042 8.62497 8.47396L7.34526 7.97396C7.07753 8.17188 6.79375 8.33854 6.47783 8.46354L6.28507 9.78646C6.26365 9.91146 6.15656 10 6.02806 10H3.97194C3.84344 10 3.7417 9.91146 3.72028 9.78646L3.52752 8.46354C3.21161 8.33854 2.92247 8.16667 2.6601 7.97396L1.38038 8.47396C1.26258 8.51563 1.12872 8.47396 1.06447 8.35938L0.041765 6.63021C-0.0224886 6.52083 -0.00107077 6.38542 0.106019 6.3125L1.19297 5.48958C1.1662 5.33333 1.14478 5.16146 1.14478 5C1.14478 4.83854 1.15549 4.66667 1.18227 4.51042L0.0953096 3.6875C-0.00107076 3.61458 -0.027843 3.47396 0.0310561 3.36979L1.05911 1.64062C1.12337 1.52604 1.25723 1.48958 1.37503 1.52604L2.65474 2.02604C2.92247 1.82813 3.20625 1.66146 3.52217 1.53646L3.71493 0.213542C3.7417 0.0885416 3.84344 -1.58946e-08 3.97194 -1.58946e-08H6.02806C6.15656 -1.58946e-08 6.26365 0.0885416 6.27972 0.213542L6.47248 1.53646C6.78839 1.66146 7.07753 1.82813 7.3399 2.02604L8.61962 1.52604C8.73742 1.48438 8.87128 1.52604 8.93553 1.64062L9.96359 3.36979C10.0278 3.48438 10.0011 3.61458 9.89934 3.6875L8.82309 4.51042ZM5 3.125C3.93982 3.125 3.07239 3.96875 3.07239 5C3.07239 6.03125 3.93982 6.875 5 6.875C6.06018 6.875 6.92761 6.03125 6.92761 5C6.92761 3.96875 6.06018 3.125 5 3.125Z" fill="#312A2A"/>
</svg>
