<svg width="11" height="11" viewBox="0 0 11 11" fill="none" xmlns="http://www.w3.org/2000/svg">
<path d="M9.7054 4.96146C9.72896 5.13333 9.74074 5.31094 9.74074 5.5C9.74074 5.68333 9.72896 5.86667 9.69951 6.03854L10.8952 6.94375C11.0012 7.02396 11.0306 7.17865 10.9658 7.29323L9.83498 9.19531C9.7643 9.32135 9.61705 9.36146 9.48747 9.32135L8.07978 8.77135C7.78529 8.98906 7.47312 9.1724 7.12562 9.3099L6.91358 10.7651C6.89002 10.9026 6.77222 11 6.63086 11H4.36914C4.22778 11 4.11587 10.9026 4.09231 10.7651L3.88027 9.3099C3.53277 9.1724 3.21471 8.98333 2.92611 8.77135L1.51842 9.32135C1.38884 9.36719 1.24159 9.32135 1.17091 9.19531L0.0459415 7.29323C-0.0247374 7.17292 -0.00117784 7.02396 0.11662 6.94375L1.31227 6.03854C1.28282 5.86667 1.25926 5.6776 1.25926 5.5C1.25926 5.3224 1.27104 5.13333 1.30049 4.96146L0.104841 4.05625C-0.00117784 3.97604 -0.0306273 3.82135 0.0341617 3.70677L1.16502 1.80469C1.2357 1.67865 1.38295 1.63854 1.51253 1.67865L2.92022 2.22865C3.21471 2.01094 3.52688 1.8276 3.87438 1.6901L4.08642 0.234896C4.11587 0.0973961 4.22778 3.25839e-07 4.36914 3.25839e-07H6.63086C6.77222 3.25839e-07 6.89002 0.0973961 6.90769 0.234896L7.11973 1.6901C7.46723 1.8276 7.78529 2.01094 8.07389 2.22865L9.48158 1.67865C9.61116 1.63281 9.75841 1.67865 9.82909 1.80469L10.9599 3.70677C11.0306 3.83281 11.0012 3.97604 10.8893 4.05625L9.7054 4.96146ZM5.5 3.4375C4.3338 3.4375 3.37963 4.36563 3.37963 5.5C3.37963 6.63438 4.3338 7.5625 5.5 7.5625C6.6662 7.5625 7.62037 6.63438 7.62037 5.5C7.62037 4.36563 6.6662 3.4375 5.5 3.4375Z" fill="#312A2A"/>
</svg>
