<svg width="9" height="9" viewBox="0 0 9 9" fill="none" xmlns="http://www.w3.org/2000/svg">
<path d="M7.94078 4.05938C7.96006 4.2 7.96969 4.34531 7.96969 4.5C7.96969 4.65 7.96006 4.8 7.93596 4.94063L8.91422 5.68125C9.00096 5.74688 9.02506 5.87344 8.97205 5.96719L8.0468 7.52344C7.98897 7.62656 7.86849 7.65938 7.76248 7.62656L6.61073 7.17656C6.36978 7.35469 6.11437 7.50469 5.83005 7.61719L5.65656 8.80781C5.63729 8.92031 5.54091 9 5.42525 9H3.57475C3.45909 9 3.36753 8.92031 3.34825 8.80781L3.17477 7.61719C2.89045 7.50469 2.63022 7.35 2.39409 7.17656L1.24234 7.62656C1.13632 7.66406 1.01585 7.62656 0.958021 7.52344L0.0375885 5.96719C-0.0202397 5.86875 -0.000963691 5.74688 0.0954167 5.68125L1.07368 4.94063C1.04958 4.8 1.03031 4.64531 1.03031 4.5C1.03031 4.35469 1.03994 4.2 1.06404 4.05938L0.0857787 3.31875C-0.000963684 3.25313 -0.0250587 3.12656 0.0279505 3.03281L0.953202 1.47656C1.01103 1.37344 1.13151 1.34063 1.23752 1.37344L2.38927 1.82344C2.63022 1.64531 2.88563 1.49531 3.16995 1.38281L3.34344 0.192187C3.36753 0.0796881 3.45909 0 3.57475 0H5.42525C5.54091 0 5.63729 0.0796881 5.65175 0.192187L5.82523 1.38281C6.10955 1.49531 6.36978 1.64531 6.60591 1.82344L7.75766 1.37344C7.86368 1.33594 7.98415 1.37344 8.04198 1.47656L8.96723 3.03281C9.02506 3.13594 9.00096 3.25313 8.9094 3.31875L7.94078 4.05938ZM4.5 2.8125C3.54583 2.8125 2.76515 3.57188 2.76515 4.5C2.76515 5.42813 3.54583 6.1875 4.5 6.1875C5.45417 6.1875 6.23485 5.42813 6.23485 4.5C6.23485 3.57188 5.45417 2.8125 4.5 2.8125Z" fill="black" fill-opacity="0.6"/>
</svg>
