<svg width="144" height="23" viewBox="0 0 144 23" fill="none" xmlns="http://www.w3.org/2000/svg">
<g clip-path="url(#clip0_853_699)">
<path d="M46 3.11692H38.0142V7.41542H45.3685C45.9185 7.41542 46.3056 7.53765 46.5704 7.78211C46.8353 8.02658 46.9779 8.35253 46.9779 8.7396C46.9779 9.12666 46.8557 9.45262 46.5908 9.71745C46.326 9.98229 45.9185 10.0841 45.3685 10.0841H38.0142V15.0549H46.2649C46.8149 15.0549 47.2427 15.1772 47.5279 15.442C47.8131 15.7068 47.9557 16.0531 47.9557 16.481C47.9557 16.9088 47.8131 17.2347 47.5279 17.4996C47.2427 17.7644 46.8353 17.8866 46.2649 17.8866H36.6289C35.8548 17.8866 35.3047 17.7237 34.9584 17.3773C34.6121 17.031 34.4491 16.481 34.4491 15.7272V2.5465C34.4491 2.0372 34.5306 1.62976 34.6732 1.30381C34.8158 0.97786 35.0603 0.753767 35.3862 0.590791C35.7122 0.427815 36.1196 0.366699 36.6289 0.366699H45.9797C46.5501 0.366699 46.9575 0.488931 47.2427 0.733395C47.5279 0.97786 47.6502 1.30381 47.6502 1.71125C47.6502 2.11869 47.5076 2.46502 47.2427 2.70948C46.9779 2.95394 46.5501 3.07618 45.9797 3.07618L46 3.11692Z" fill="#312A2A"/>
<path d="M53.0691 18.5793L53.3747 17.8459L49.3614 7.74138C49.117 7.15059 48.9947 6.74315 48.9947 6.47831C48.9947 6.1931 49.0762 5.94864 49.2188 5.70418C49.3614 5.45971 49.5652 5.27636 49.8096 5.13376C50.0541 4.99116 50.3189 4.90967 50.5837 4.90967C51.0523 4.90967 51.3986 5.05227 51.6431 5.35785C51.8876 5.66343 52.0913 6.09124 52.2746 6.64129L55.0248 14.6679L57.6325 7.2117C57.8362 6.60054 58.0195 6.13199 58.2029 5.78566C58.3862 5.43934 58.5492 5.21525 58.7326 5.09302C58.9159 4.97078 59.1807 4.90967 59.5271 4.90967C59.7715 4.90967 60.016 4.97078 60.2401 5.11339C60.4642 5.25599 60.6475 5.41897 60.7698 5.64306C60.892 5.86715 60.9531 6.09124 60.9531 6.35608C60.9124 6.49868 60.8716 6.72278 60.7901 7.00798C60.7086 7.29319 60.6271 7.5784 60.5253 7.86361L56.2675 18.9867C55.9008 19.9646 55.5341 20.7387 55.1878 21.2888C54.8415 21.8388 54.3729 22.2666 53.8025 22.5722C53.2321 22.8778 52.4376 23.0204 51.4597 23.0204C50.4819 23.0204 49.7892 22.9185 49.3207 22.7148C48.8521 22.5111 48.6077 22.124 48.6077 21.574C48.6077 21.2073 48.7299 20.9017 48.954 20.7183C49.1781 20.535 49.5244 20.4128 49.9726 20.4128C50.1559 20.4128 50.3189 20.4331 50.4819 20.4943C50.6856 20.535 50.869 20.5757 51.0116 20.5757C51.3783 20.5757 51.6838 20.5146 51.8876 20.4128C52.0913 20.3109 52.295 20.1072 52.458 19.8424C52.621 19.5775 52.8247 19.1701 53.0488 18.6404L53.0691 18.5793Z" fill="#312A2A"/>
<path d="M71.0983 12.3457H64.7219C64.7219 13.0791 64.8848 13.731 65.1701 14.3014C65.4553 14.8718 65.8423 15.2996 66.3313 15.5848C66.8202 15.87 67.3499 16.0126 67.9203 16.0126C68.3073 16.0126 68.674 15.9719 68.9796 15.87C69.2852 15.7682 69.6112 15.6256 69.9167 15.4422C70.2223 15.2589 70.5075 15.0348 70.752 14.8107C70.9964 14.5866 71.3428 14.281 71.7502 13.8939C71.9132 13.7513 72.1577 13.6698 72.4632 13.6698C72.7892 13.6698 73.0744 13.7513 73.2781 13.9347C73.4818 14.118 73.5837 14.3829 73.5837 14.7088C73.5837 14.994 73.4615 15.3404 73.2374 15.7478C73.0133 16.1552 72.667 16.5219 72.1984 16.8886C71.7298 17.2553 71.1391 17.5609 70.4464 17.785C69.7538 18.0091 68.9389 18.1517 68.0221 18.1517C65.9238 18.1517 64.2941 17.5609 63.1329 16.359C61.9716 15.157 61.3809 13.5476 61.3809 11.5104C61.3809 10.5529 61.5235 9.65656 61.8087 8.82131C62.0939 7.98606 62.5217 7.29341 63.0717 6.70262C63.6218 6.11183 64.2941 5.66365 65.1089 5.3377C65.9238 5.01174 66.7998 4.86914 67.7777 4.86914C69.0407 4.86914 70.1408 5.13398 71.0576 5.68402C71.9743 6.23407 72.6466 6.90634 73.0948 7.76197C73.543 8.61759 73.767 9.47322 73.767 10.3696C73.767 11.1845 73.5226 11.7141 73.054 11.9586C72.5855 12.2031 71.9336 12.3253 71.0779 12.3253L71.0983 12.3457ZM64.7219 10.4918H70.6298C70.5483 9.37136 70.2427 8.5361 69.7334 7.98606C69.2241 7.43601 68.5314 7.15081 67.6758 7.15081C66.8202 7.15081 66.1887 7.43601 65.6794 7.98606C65.1701 8.5361 64.8441 9.37135 64.7219 10.4714V10.4918Z" fill="#312A2A"/>
<path d="M91.3684 3.11692H84.3808V7.59876H90.2276C90.7776 7.59876 91.1647 7.721 91.4295 7.96546C91.6944 8.20992 91.837 8.53588 91.837 8.94332C91.837 9.35076 91.6944 9.67671 91.4295 9.9008C91.1647 10.1249 90.7572 10.2675 90.2276 10.2675H84.3808V16.0328C84.3808 16.7662 84.2178 17.3162 83.8919 17.6625C83.5659 18.0089 83.1381 18.1922 82.6288 18.1922C82.1195 18.1922 81.6713 18.0089 81.3454 17.6625C81.0194 17.3162 80.8564 16.7662 80.8564 16.0328V2.5465C80.8564 2.0372 80.9379 1.62976 81.0805 1.30381C81.2231 0.97786 81.4676 0.753767 81.7936 0.590791C82.1195 0.427815 82.5269 0.366699 83.0363 0.366699H91.3888C91.9592 0.366699 92.3666 0.488931 92.6518 0.733395C92.9371 0.97786 93.0593 1.30381 93.0593 1.71125C93.0593 2.11869 92.9167 2.46502 92.6518 2.70948C92.387 2.95394 91.9592 3.07618 91.3888 3.07618L91.3684 3.11692Z" fill="#312A2A"/>
<path d="M97.7653 13.466V16.1959C97.7653 16.8478 97.6023 17.3571 97.2967 17.6831C96.9911 18.009 96.5837 18.172 96.1151 18.172C95.6466 18.172 95.2595 18.009 94.9539 17.6627C94.6483 17.3164 94.5057 16.8274 94.5057 16.1755V7.13035C94.5057 5.66357 95.0354 4.93018 96.0948 4.93018C96.6448 4.93018 97.0319 5.09315 97.256 5.43948C97.4801 5.7858 97.6227 6.2951 97.643 6.947C98.0301 6.27473 98.4375 5.76543 98.845 5.43948C99.2524 5.11352 99.8025 4.93018 100.495 4.93018C101.188 4.93018 101.84 5.09315 102.492 5.43948C103.143 5.7858 103.449 6.23398 103.449 6.8044C103.449 7.21184 103.306 7.53779 103.042 7.78226C102.777 8.02672 102.471 8.16933 102.145 8.16933C102.023 8.16933 101.738 8.08784 101.29 7.94523C100.841 7.80263 100.434 7.72114 100.088 7.72114C99.6191 7.72114 99.2117 7.84337 98.9265 8.08784C98.6413 8.3323 98.3968 8.71937 98.2134 9.2083C98.0301 9.69723 97.9282 10.288 97.8671 10.9603C97.806 11.6326 97.7653 12.4678 97.7653 13.4457V13.466Z" fill="#312A2A"/>
<path d="M113.717 12.3457H107.34C107.34 13.0791 107.503 13.731 107.788 14.3014C108.074 14.8718 108.461 15.2996 108.95 15.5848C109.438 15.87 109.968 16.0126 110.539 16.0126C110.926 16.0126 111.292 15.9719 111.598 15.87C111.903 15.7682 112.229 15.6256 112.535 15.4422C112.841 15.2589 113.126 15.0348 113.37 14.8107C113.615 14.5866 113.961 14.281 114.368 13.8939C114.531 13.7513 114.776 13.6698 115.082 13.6698C115.407 13.6698 115.693 13.7513 115.896 13.9347C116.1 14.118 116.202 14.3829 116.202 14.7088C116.202 14.994 116.08 15.3404 115.856 15.7478C115.632 16.1552 115.285 16.5219 114.817 16.8886C114.348 17.2553 113.757 17.5609 113.065 17.785C112.372 18.0091 111.557 18.1517 110.64 18.1517C108.542 18.1517 106.912 17.5609 105.751 16.359C104.59 15.157 103.999 13.5476 103.999 11.5104C103.999 10.5529 104.142 9.65656 104.427 8.82131C104.712 7.98606 105.14 7.29341 105.69 6.70262C106.24 6.11183 106.912 5.66365 107.727 5.3377C108.542 5.01174 109.418 4.86914 110.396 4.86914C111.659 4.86914 112.759 5.13398 113.676 5.68402C114.593 6.23407 115.265 6.90634 115.713 7.76197C116.161 8.61759 116.385 9.47322 116.385 10.3696C116.385 11.1845 116.141 11.7141 115.672 11.9586C115.204 12.2031 114.552 12.3253 113.696 12.3253L113.717 12.3457ZM107.34 10.4918H113.248C113.167 9.37136 112.861 8.5361 112.352 7.98606C111.842 7.43601 111.15 7.15081 110.294 7.15081C109.438 7.15081 108.807 7.43601 108.298 7.98606C107.788 8.5361 107.462 9.37135 107.34 10.4714V10.4918Z" fill="#312A2A"/>
<path d="M129.648 13.9142C129.648 14.8106 129.423 15.5847 128.996 16.2163C128.568 16.8478 127.916 17.3367 127.06 17.6627C126.205 17.9886 125.166 18.1516 123.943 18.1516C122.721 18.1516 121.764 17.9683 120.928 17.6219C120.093 17.2756 119.482 16.8071 119.074 16.2774C118.667 15.7477 118.484 15.1977 118.484 14.668C118.484 14.3013 118.606 13.9957 118.871 13.7513C119.136 13.5068 119.441 13.3642 119.828 13.3642C120.175 13.3642 120.439 13.4457 120.623 13.6087C120.806 13.7716 120.989 14.0161 121.152 14.3217C121.478 14.9125 121.886 15.3403 122.354 15.6255C122.823 15.9107 123.454 16.0533 124.249 16.0533C124.901 16.0533 125.43 15.9107 125.858 15.6255C126.286 15.3403 126.49 14.9939 126.49 14.6273C126.49 14.0568 126.266 13.629 125.838 13.3642C125.41 13.0994 124.697 12.8549 123.699 12.6104C122.578 12.3252 121.662 12.04 120.969 11.7344C120.276 11.4288 119.706 11.0214 119.278 10.5325C118.85 10.0436 118.647 9.41202 118.647 8.67863C118.647 8.02672 118.85 7.41556 119.237 6.82477C119.624 6.23398 120.195 5.7858 120.969 5.43948C121.743 5.09315 122.64 4.93018 123.719 4.93018C124.555 4.93018 125.329 5.01166 126.001 5.19501C126.673 5.37836 127.244 5.60245 127.692 5.90803C128.14 6.21361 128.486 6.51919 128.71 6.88589C128.934 7.25259 129.057 7.59891 129.057 7.94523C129.057 8.31193 128.934 8.61751 128.69 8.86197C128.446 9.10644 128.079 9.22867 127.631 9.22867C127.305 9.22867 127.02 9.12681 126.775 8.94346C126.531 8.76011 126.266 8.47491 125.96 8.08784C125.716 7.76189 125.431 7.51742 125.084 7.3137C124.738 7.10998 124.29 7.02849 123.719 7.02849C123.149 7.02849 122.64 7.15073 122.252 7.39519C121.865 7.63965 121.662 7.96561 121.662 8.3323C121.662 8.67863 121.804 8.96383 122.089 9.16755C122.375 9.37127 122.762 9.57499 123.251 9.7176C123.74 9.8602 124.412 10.0436 125.247 10.2473C126.266 10.4917 127.081 10.7973 127.733 11.1233C128.384 11.4492 128.853 11.877 129.179 12.3252C129.505 12.7734 129.668 13.3234 129.668 13.9142H129.648Z" fill="#312A2A"/>
<path d="M135.596 2.05763V6.88579C136.004 6.41724 136.411 6.03017 136.798 5.74496C137.185 5.45975 137.633 5.25603 138.102 5.11343C138.57 4.97083 139.1 4.90971 139.65 4.90971C140.485 4.90971 141.219 5.09306 141.85 5.43938C142.482 5.78571 142.991 6.29501 143.358 6.96728C143.582 7.35435 143.745 7.80253 143.826 8.27109C143.908 8.73965 143.949 9.31006 143.949 9.9416V16.1754C143.949 16.8273 143.806 17.3163 143.5 17.6626C143.195 18.0089 142.808 18.1719 142.319 18.1719C141.239 18.1719 140.709 17.52 140.709 16.1958V10.6954C140.709 9.65639 140.546 8.84151 140.241 8.29146C139.935 7.74142 139.345 7.45621 138.469 7.45621C137.878 7.45621 137.368 7.61919 136.9 7.94514C136.431 8.27109 136.085 8.71928 135.861 9.31006C135.678 9.79899 135.596 10.6546 135.596 11.8973V16.2162C135.596 16.8681 135.453 17.357 135.168 17.683C134.883 18.0089 134.476 18.1923 133.966 18.1923C132.887 18.1923 132.357 17.5404 132.357 16.2162V2.05763C132.357 1.40572 132.5 0.896423 132.785 0.570471C133.07 0.244519 133.457 0.081543 133.966 0.081543C134.476 0.081543 134.883 0.244519 135.168 0.590843C135.453 0.937167 135.596 1.4261 135.596 2.078V2.05763Z" fill="#312A2A"/>
<path d="M14.2604 0C7.78211 0 2.24092 4.11515 0 9.92117C2.24092 15.7272 7.78211 19.8423 14.2604 19.8423C20.7387 19.8423 26.2799 15.7272 28.5208 9.92117C26.3003 4.11515 20.7591 0 14.2604 0ZM14.2604 18.6811C9.5341 18.6811 5.68379 14.7697 5.68379 9.94154C5.68379 5.11338 9.5341 1.18158 14.2604 1.18158C18.9867 1.18158 22.837 5.093 22.837 9.92117C22.837 14.7493 18.9867 18.6608 14.2604 18.6608V18.6811ZM14.2604 3.27989C10.6546 3.27989 7.74136 6.25421 7.74136 9.94154C7.74136 13.6289 10.6546 16.6032 14.2604 16.6032C17.8663 16.6032 20.7795 13.6289 20.7795 9.94154C20.7795 6.25421 17.8663 3.27989 14.2604 3.27989Z" fill="#312A2A"/>
<path d="M18.8237 11.6526C18.3144 12.2433 17.6625 12.7323 16.8883 13.099C16.1142 13.4657 15.3197 13.649 14.5456 13.649C13.7714 13.649 12.9973 13.4657 12.2232 13.1193C11.449 12.773 10.7971 12.2841 10.2471 11.6526V10.8988C10.8582 11.4081 11.5305 11.7952 12.2232 12.0396C12.9158 12.2841 13.6899 12.4063 14.5456 12.4063C15.4012 12.4063 16.1957 12.2841 16.8883 12.0193C17.581 11.7544 18.2329 11.3877 18.8237 10.8784V11.6322V11.6526Z" fill="white"/>
<path d="M12.4676 6.64111C12.7121 6.64111 12.9362 6.7226 13.1195 6.90595C13.3029 7.0893 13.4048 7.31339 13.4048 7.55785C13.4048 7.80232 13.3233 8.02641 13.1399 8.20976C12.9566 8.39311 12.7325 8.49497 12.488 8.49497C12.2436 8.49497 12.0195 8.39311 11.8361 8.20976C11.6528 8.02641 11.5509 7.80232 11.5509 7.55785C11.5509 7.31339 11.6528 7.0893 11.8361 6.90595C12.0195 6.7226 12.2436 6.64111 12.488 6.64111H12.4676Z" fill="white"/>
<path d="M16.2772 6.64111C16.5217 6.64111 16.7458 6.7226 16.9291 6.90595C17.1125 7.0893 17.2143 7.31339 17.2143 7.55785C17.2143 7.80232 17.1328 8.02641 16.9495 8.20976C16.7661 8.39311 16.5421 8.49497 16.2976 8.49497C16.0531 8.49497 15.829 8.39311 15.6457 8.20976C15.4623 8.02641 15.3605 7.80232 15.3605 7.55785C15.3605 7.31339 15.4623 7.0893 15.6457 6.90595C15.829 6.7226 16.0531 6.64111 16.2976 6.64111H16.2772Z" fill="white"/>
</g>
<defs>
<clipPath id="clip0_853_699">
<rect width="143.949" height="23" fill="white"/>
</clipPath>
</defs>
</svg>
