<svg width="118" height="19" viewBox="0 0 118 19" fill="none" xmlns="http://www.w3.org/2000/svg">
<g clip-path="url(#clip0_165_717)">
<path d="M37.42 2.5351H30.9237V6.03183H36.9063C37.3537 6.03183 37.6686 6.13126 37.884 6.33013C38.0995 6.52899 38.2155 6.79415 38.2155 7.10902C38.2155 7.42389 38.116 7.68905 37.9006 7.90449C37.6851 8.11992 37.3537 8.20278 36.9063 8.20278H30.9237V12.2464H37.6354C38.0829 12.2464 38.4309 12.3458 38.6629 12.5613C38.8949 12.7767 39.0109 13.0584 39.0109 13.4065C39.0109 13.7545 38.8949 14.0196 38.6629 14.2351C38.4309 14.4505 38.0994 14.5499 37.6354 14.5499H29.7968C29.167 14.5499 28.7196 14.4174 28.4379 14.1356C28.1561 13.8539 28.0236 13.4065 28.0236 12.7933V2.07108C28.0236 1.65677 28.0898 1.32533 28.2059 1.06017C28.3219 0.795017 28.5207 0.612723 28.7859 0.480146C29.051 0.347568 29.3825 0.297852 29.7968 0.297852H37.4034C37.8674 0.297852 38.1989 0.397285 38.4309 0.596151C38.6629 0.795017 38.7623 1.06017 38.7623 1.39162C38.7623 1.72306 38.6463 2.00479 38.4309 2.20365C38.2155 2.40252 37.8674 2.50195 37.4034 2.50195L37.42 2.5351Z" fill="#231F20"/>
<path d="M43.1705 15.1141L43.4191 14.5175L40.1544 6.29767C39.9555 5.81708 39.8561 5.48564 39.8561 5.2702C39.8561 5.03819 39.9224 4.83932 40.0384 4.64046C40.1544 4.44159 40.3201 4.29244 40.519 4.17643C40.7179 4.06043 40.9333 3.99414 41.1487 3.99414C41.5299 3.99414 41.8116 4.11015 42.0105 4.35873C42.2094 4.60731 42.3751 4.95533 42.5242 5.40278L44.7615 11.9322L46.8827 5.8668C47.0484 5.36963 47.1976 4.98847 47.3467 4.70674C47.4959 4.42502 47.6285 4.24272 47.7776 4.14329C47.9268 4.04386 48.1422 3.99414 48.4239 3.99414C48.6228 3.99414 48.8217 4.04386 49.0039 4.15986C49.1862 4.27587 49.3354 4.40845 49.4348 4.59074C49.5343 4.77303 49.584 4.95533 49.584 5.17077C49.5508 5.28677 49.5177 5.46907 49.4514 5.70108C49.3851 5.93309 49.3188 6.1651 49.236 6.39711L45.7724 15.4455C45.4741 16.241 45.1758 16.8707 44.894 17.3182C44.6123 17.7656 44.2312 18.1136 43.7671 18.3622C43.3031 18.6108 42.6568 18.7268 41.8613 18.7268C41.0659 18.7268 40.5024 18.644 40.1213 18.4782C39.7401 18.3125 39.5412 17.9976 39.5412 17.5502C39.5412 17.2519 39.6407 17.0033 39.823 16.8542C40.0053 16.705 40.287 16.6056 40.6516 16.6056C40.8007 16.6056 40.9333 16.6221 41.0659 16.6719C41.2316 16.705 41.3807 16.7382 41.4967 16.7382C41.795 16.7382 42.0436 16.6884 42.2093 16.6056C42.3751 16.5227 42.5408 16.357 42.6734 16.1416C42.8059 15.9261 42.9717 15.5947 43.154 15.1638L43.1705 15.1141Z" fill="#231F20"/>
<path d="M57.8369 10.0429H52.6498C52.6498 10.6395 52.7824 11.1698 53.0144 11.6339C53.2464 12.0979 53.5613 12.4459 53.9591 12.6779C54.3568 12.9099 54.7877 13.0259 55.2517 13.0259C55.5666 13.0259 55.8649 12.9928 56.1134 12.9099C56.362 12.8271 56.6272 12.7111 56.8758 12.5619C57.1243 12.4128 57.3563 12.2305 57.5552 12.0482C57.7541 11.8659 58.0358 11.6173 58.3673 11.3024C58.4998 11.1864 58.6987 11.1201 58.9473 11.1201C59.2124 11.1201 59.4444 11.1864 59.6102 11.3356C59.7759 11.4847 59.8587 11.7001 59.8587 11.9653C59.8587 12.1973 59.7593 12.479 59.577 12.8105C59.3947 13.1419 59.113 13.4402 58.7318 13.7385C58.3507 14.0368 57.8701 14.2854 57.3066 14.4677C56.7432 14.65 56.0803 14.766 55.3345 14.766C53.6276 14.766 52.3018 14.2854 51.3572 13.3076C50.4126 12.3299 49.932 11.0207 49.932 9.36347C49.932 8.58458 50.048 7.8554 50.28 7.17594C50.512 6.49648 50.86 5.93303 51.3075 5.45243C51.7549 4.97184 52.3018 4.60725 52.9647 4.3421C53.6276 4.07694 54.3402 3.96094 55.1357 3.96094C56.1632 3.96094 57.0581 4.17638 57.8038 4.62382C58.5495 5.07127 59.0964 5.61816 59.461 6.31419C59.8256 7.01022 60.0079 7.70625 60.0079 8.43543C60.0079 9.09832 59.809 9.52919 59.4279 9.72806C59.0467 9.92692 58.5164 10.0264 57.8204 10.0264L57.8369 10.0429ZM52.6498 8.53486H57.4558C57.3895 7.62339 57.1409 6.94393 56.7266 6.49648C56.3123 6.04903 55.7488 5.81702 55.0528 5.81702C54.3568 5.81702 53.843 6.04903 53.4287 6.49648C53.0144 6.94393 52.7493 7.62339 52.6498 8.51829V8.53486Z" fill="#231F20"/>
<path d="M74.3263 2.5351H68.642V6.18098H73.3982C73.8457 6.18098 74.1605 6.28041 74.376 6.47928C74.5914 6.67814 74.7074 6.9433 74.7074 7.27474C74.7074 7.60619 74.5914 7.87134 74.376 8.05364C74.1605 8.23593 73.8291 8.35193 73.3982 8.35193H68.642V13.0419C68.642 13.6385 68.5094 14.0859 68.2443 14.3676C67.9791 14.6494 67.6311 14.7985 67.2168 14.7985C66.8025 14.7985 66.4379 14.6494 66.1727 14.3676C65.9076 14.0859 65.775 13.6385 65.775 13.0419V2.07108C65.775 1.65677 65.8413 1.32533 65.9573 1.06017C66.0733 0.795017 66.2722 0.612723 66.5373 0.480146C66.8025 0.347568 67.1339 0.297852 67.5482 0.297852H74.3428C74.8069 0.297852 75.1383 0.397285 75.3703 0.596151C75.6023 0.795017 75.7018 1.06017 75.7018 1.39162C75.7018 1.72306 75.5857 2.00479 75.3703 2.20365C75.1549 2.40252 74.8069 2.50195 74.3428 2.50195L74.3263 2.5351Z" fill="#231F20"/>
<path d="M79.5299 10.9545V13.1752C79.5299 13.7055 79.3974 14.1198 79.1488 14.3849C78.9002 14.6501 78.5688 14.7827 78.1876 14.7827C77.8064 14.7827 77.4916 14.6501 77.243 14.3684C76.9944 14.0866 76.8784 13.6889 76.8784 13.1586V5.80054C76.8784 4.60734 77.3093 4.01074 78.171 4.01074C78.6185 4.01074 78.9333 4.14332 79.1156 4.42505C79.2979 4.70677 79.4139 5.12108 79.4305 5.65139C79.7454 5.10451 80.0768 4.6902 80.4083 4.42505C80.7397 4.15989 81.1872 4.01074 81.7506 4.01074C82.3141 4.01074 82.8444 4.14332 83.3747 4.42505C83.905 4.70677 84.1536 5.07136 84.1536 5.53538C84.1536 5.86683 84.0376 6.13198 83.8221 6.33085C83.6067 6.52971 83.3581 6.64572 83.093 6.64572C82.9935 6.64572 82.7615 6.57943 82.3969 6.46343C82.0323 6.34742 81.7009 6.28113 81.4192 6.28113C81.038 6.28113 80.7066 6.38056 80.4746 6.57943C80.2425 6.7783 80.0437 7.09317 79.8945 7.4909C79.7454 7.88863 79.6625 8.36923 79.6128 8.91611C79.5631 9.46299 79.5299 10.1425 79.5299 10.9379V10.9545Z" fill="#231F20"/>
<path d="M92.5059 10.0429H87.3189C87.3189 10.6395 87.4514 11.1698 87.6834 11.6339C87.9155 12.0979 88.2303 12.4459 88.6281 12.6779C89.0258 12.9099 89.4567 13.0259 89.9207 13.0259C90.2356 13.0259 90.5339 12.9928 90.7824 12.9099C91.031 12.8271 91.2962 12.7111 91.5448 12.5619C91.7933 12.4128 92.0254 12.2305 92.2242 12.0482C92.4231 11.8659 92.7048 11.6173 93.0363 11.3024C93.1688 11.1864 93.3677 11.1201 93.6163 11.1201C93.8814 11.1201 94.1134 11.1864 94.2792 11.3356C94.4449 11.4847 94.5278 11.7001 94.5278 11.9653C94.5278 12.1973 94.4283 12.479 94.246 12.8105C94.0637 13.1419 93.782 13.4402 93.4008 13.7385C93.0197 14.0368 92.5391 14.2854 91.9756 14.4677C91.4122 14.65 90.7493 14.766 90.0036 14.766C88.2966 14.766 86.9708 14.2854 86.0262 13.3076C85.0816 12.3299 84.601 11.0207 84.601 9.36347C84.601 8.58458 84.717 7.8554 84.949 7.17594C85.181 6.49648 85.5291 5.93303 85.9765 5.45243C86.424 4.97184 86.9708 4.60725 87.6337 4.3421C88.2966 4.07694 89.0092 3.96094 89.8047 3.96094C90.8322 3.96094 91.7271 4.17638 92.4728 4.62382C93.2186 5.07127 93.7654 5.61816 94.13 6.31419C94.4946 7.01022 94.6769 7.70625 94.6769 8.43543C94.6769 9.09832 94.478 9.52919 94.0969 9.72806C93.7157 9.92692 93.1854 10.0264 92.4894 10.0264L92.5059 10.0429ZM87.3189 8.53486H92.1248C92.0585 7.62339 91.8099 6.94393 91.3956 6.49648C90.9813 6.04903 90.4179 5.81702 89.7218 5.81702C89.0258 5.81702 88.5121 6.04903 88.0977 6.49648C87.6834 6.94393 87.4183 7.62339 87.3189 8.51829V8.53486Z" fill="#231F20"/>
<path d="M105.465 11.3191C105.465 12.0483 105.283 12.678 104.935 13.1917C104.587 13.7055 104.057 14.1032 103.361 14.3684C102.665 14.6335 101.82 14.7661 100.825 14.7661C99.8309 14.7661 99.052 14.6169 98.3725 14.3352C97.6931 14.0535 97.1959 13.6723 96.8644 13.2414C96.533 12.8106 96.3839 12.3631 96.3839 11.9322C96.3839 11.6339 96.4833 11.3854 96.6987 11.1865C96.9142 10.9876 97.1627 10.8716 97.4776 10.8716C97.7593 10.8716 97.9748 10.9379 98.1239 11.0705C98.2731 11.2031 98.4222 11.4019 98.5548 11.6505C98.82 12.1311 99.1514 12.4791 99.5326 12.7111C99.9137 12.9432 100.427 13.0592 101.074 13.0592C101.604 13.0592 102.035 12.9432 102.383 12.7111C102.731 12.4791 102.897 12.1974 102.897 11.8991C102.897 11.4351 102.714 11.0871 102.366 10.8716C102.018 10.6562 101.438 10.4573 100.626 10.2585C99.7149 10.0264 98.9691 9.79444 98.4057 9.54585C97.8422 9.29727 97.3782 8.96583 97.0302 8.56809C96.6821 8.17036 96.5164 7.65662 96.5164 7.06002C96.5164 6.52971 96.6821 6.03255 96.997 5.55196C97.3119 5.07136 97.7759 4.70677 98.4057 4.42505C99.0354 4.14332 99.7646 4.01074 100.643 4.01074C101.322 4.01074 101.952 4.07703 102.499 4.22618C103.046 4.37533 103.51 4.55762 103.874 4.80621C104.239 5.05479 104.521 5.30337 104.703 5.60167C104.885 5.89997 104.985 6.1817 104.985 6.46343C104.985 6.76173 104.885 7.01031 104.687 7.20917C104.488 7.40804 104.189 7.50747 103.825 7.50747C103.56 7.50747 103.328 7.42461 103.129 7.27546C102.93 7.12631 102.714 6.8943 102.466 6.57943C102.267 6.31428 102.035 6.11541 101.753 5.94969C101.472 5.78397 101.107 5.71768 100.643 5.71768C100.179 5.71768 99.7646 5.81711 99.4497 6.01598C99.1348 6.21484 98.9691 6.48 98.9691 6.7783C98.9691 7.06002 99.0851 7.29204 99.3171 7.45776C99.5491 7.62348 99.864 7.7892 100.262 7.90521C100.659 8.02121 101.206 8.17036 101.886 8.33608C102.714 8.53495 103.377 8.78353 103.908 9.04869C104.438 9.31384 104.819 9.66186 105.084 10.0264C105.349 10.391 105.482 10.8385 105.482 11.3191H105.465Z" fill="#231F20"/>
<path d="M110.304 1.67391V5.60152C110.636 5.22036 110.967 4.90548 111.282 4.67347C111.597 4.44146 111.962 4.27574 112.343 4.15974C112.724 4.04373 113.155 3.99401 113.602 3.99401C114.282 3.99401 114.878 4.14316 115.392 4.42489C115.906 4.70662 116.32 5.12092 116.618 5.66781C116.801 5.98268 116.933 6.34727 117 6.72843C117.066 7.10959 117.099 7.57361 117.099 8.08734V13.1584C117.099 13.6887 116.983 14.0865 116.734 14.3682C116.486 14.6499 116.171 14.7825 115.773 14.7825C114.895 14.7825 114.464 14.2522 114.464 13.175V8.70052C114.464 7.85533 114.332 7.19245 114.083 6.745C113.834 6.29755 113.354 6.06554 112.641 6.06554C112.161 6.06554 111.746 6.19812 111.365 6.46327C110.984 6.72843 110.702 7.09301 110.52 7.57361C110.371 7.97134 110.304 8.66737 110.304 9.67827V13.1916C110.304 13.7219 110.188 14.1196 109.956 14.3848C109.724 14.6499 109.393 14.7991 108.979 14.7991C108.1 14.7991 107.669 14.2688 107.669 13.1916V1.67391C107.669 1.1436 107.785 0.729294 108.018 0.464139C108.25 0.198984 108.564 0.0664062 108.979 0.0664062C109.393 0.0664062 109.724 0.198984 109.956 0.480711C110.188 0.762438 110.304 1.16017 110.304 1.69048V1.67391Z" fill="#231F20"/>
<path d="M11.6005 0C6.33058 0 1.82294 3.34758 0 8.07065C1.82294 12.7937 6.33058 16.1413 11.6005 16.1413C16.8705 16.1413 21.3781 12.7937 23.2011 8.07065C21.3947 3.34758 16.8871 0 11.6005 0ZM11.6005 15.1967C7.75578 15.1967 4.62364 12.0148 4.62364 8.08723C4.62364 4.15962 7.75578 0.961187 11.6005 0.961187C15.4453 0.961187 18.5774 4.14305 18.5774 8.07065C18.5774 11.9983 15.4453 15.1801 11.6005 15.1801V15.1967ZM11.6005 2.66812C8.66725 2.66812 6.29743 5.08766 6.29743 8.08723C6.29743 11.0868 8.66725 13.5063 11.6005 13.5063C14.5338 13.5063 16.9036 11.0868 16.9036 8.08723C16.9036 5.08766 14.5338 2.66812 11.6005 2.66812Z" fill="#231F20"/>
<path d="M15.3127 9.47935C14.8984 9.95995 14.3681 10.3577 13.7383 10.656C13.1086 10.9543 12.4623 11.1034 11.8325 11.1034C11.2028 11.1034 10.5731 10.9543 9.94332 10.6725C9.31357 10.3908 8.78326 9.99309 8.33582 9.47935V8.86618C8.83298 9.28049 9.37986 9.59536 9.94332 9.79422C10.5068 9.99309 11.1365 10.0925 11.8325 10.0925C12.5286 10.0925 13.1749 9.99309 13.7383 9.77765C14.3018 9.56221 14.8321 9.26391 15.3127 8.84961V9.46278V9.47935Z" fill="white"/>
<path d="M10.1422 5.40234C10.341 5.40234 10.5233 5.46863 10.6725 5.61778C10.8216 5.76693 10.9045 5.94923 10.9045 6.14809C10.9045 6.34696 10.8382 6.52925 10.6891 6.6784C10.5399 6.82755 10.3576 6.91041 10.1587 6.91041C9.95988 6.91041 9.77758 6.82755 9.62843 6.6784C9.47928 6.52925 9.39642 6.34696 9.39642 6.14809C9.39642 5.94923 9.47928 5.76693 9.62843 5.61778C9.77758 5.46863 9.95988 5.40234 10.1587 5.40234H10.1422Z" fill="white"/>
<path d="M13.2412 5.40234C13.44 5.40234 13.6223 5.46863 13.7715 5.61778C13.9206 5.76693 14.0035 5.94923 14.0035 6.14809C14.0035 6.34696 13.9372 6.52925 13.7881 6.6784C13.6389 6.82755 13.4566 6.91041 13.2577 6.91041C13.0589 6.91041 12.8766 6.82755 12.7274 6.6784C12.5783 6.52925 12.4954 6.34696 12.4954 6.14809C12.4954 5.94923 12.5783 5.76693 12.7274 5.61778C12.8766 5.46863 13.0589 5.40234 13.2577 5.40234H13.2412Z" fill="white"/>
</g>
<defs>
<clipPath id="clip0_165_717">
<rect width="117.099" height="18.71" fill="white"/>
</clipPath>
</defs>
</svg>
